<svg width="14" height="14" viewBox="0 0 14 14" fill="none" xmlns="http://www.w3.org/2000/svg">
<g clip-path="url(#clip0)">
<path d="M13.125 6.41666C13.0567 6.41666 12.9891 6.39274 12.9354 6.34666L11.0833 4.75883L9.23125 6.34666C9.14492 6.42074 9.02358 6.43824 8.91975 6.38983C8.8165 6.34258 8.75 6.23874 8.75 6.12499V0.874999C8.75 0.392583 9.14258 0 9.625 0H12.5417C13.0241 0 13.4167 0.392583 13.4167 0.874999V6.12499C13.4167 6.23874 13.3502 6.34258 13.2469 6.38983C13.2078 6.40791 13.1664 6.41666 13.125 6.41666ZM11.0833 4.08333C11.151 4.08333 11.2187 4.10666 11.2729 4.15333L12.8333 5.49091V0.874999C12.8333 0.714583 12.7027 0.583333 12.5417 0.583333H9.625C9.464 0.583333 9.33333 0.714583 9.33333 0.874999V5.49091L10.8937 4.15333C10.948 4.10666 11.0157 4.08333 11.0833 4.08333Z" fill="white"/>
<path d="M0.87498 10.5C0.71398 10.5 0.583313 10.3693 0.583313 10.2083V1.45833C0.583313 0.653916 1.23781 0 2.04165 0H7.29165C7.45265 0 7.58331 0.130667 7.58331 0.291667C7.58331 0.452666 7.45265 0.583333 7.29165 0.583333H2.04165C1.55923 0.583333 1.16665 0.975916 1.16665 1.45833V10.2083C1.16665 10.3693 1.03598 10.5 0.87498 10.5Z" fill="white"/>
<path d="M4.37498 11.6667H2.04165C1.23781 11.6667 0.583313 11.0128 0.583313 10.2083C0.583313 9.40392 1.23781 8.75 2.04165 8.75H10.5V7.29167C10.5 7.13067 10.6306 7 10.7916 7C10.9526 7 11.0833 7.13067 11.0833 7.29167V9.04167C11.0833 9.20267 10.9526 9.33333 10.7916 9.33333H2.04165C1.55923 9.33333 1.16665 9.72592 1.16665 10.2083C1.16665 10.6908 1.55923 11.0833 2.04165 11.0833H4.37498C4.53598 11.0833 4.66665 11.214 4.66665 11.375C4.66665 11.536 4.53598 11.6667 4.37498 11.6667Z" fill="white"/>
<path d="M10.7917 11.6667H7.29167C7.13067 11.6667 7 11.536 7 11.375C7 11.214 7.13067 11.0833 7.29167 11.0833H10.5V9.04167C10.5 8.88067 10.6307 8.75 10.7917 8.75C10.9527 8.75 11.0833 8.88067 11.0833 9.04167V11.375C11.0833 11.536 10.9527 11.6667 10.7917 11.6667Z" fill="white"/>
<path d="M7.29166 14C7.2269 14 7.16215 13.9784 7.10907 13.9364L5.83332 12.9155L4.55698 13.9364C4.46948 14.0064 4.3499 14.0198 4.2484 13.9714C4.14748 13.9224 4.08331 13.8203 4.08331 13.7083V10.2083C4.08331 10.0473 4.21398 9.91663 4.37498 9.91663C4.53598 9.91663 4.66665 10.0473 4.66665 10.2083V13.1016L5.65132 12.3135C5.75807 12.2284 5.90915 12.2284 6.0159 12.3135L6.99999 13.1016V10.2083C6.99999 10.0473 7.13065 9.91663 7.29166 9.91663C7.45266 9.91663 7.58332 10.0473 7.58332 10.2083V13.7083C7.58332 13.8203 7.51916 13.9224 7.41824 13.9708C7.37799 13.99 7.33482 14 7.29166 14Z" fill="white"/>
<path d="M8.45835 10.5H3.20835C3.04735 10.5 2.91669 10.3693 2.91669 10.2083C2.91669 10.0473 3.04735 9.91663 3.20835 9.91663H8.45835C8.61935 9.91663 8.75002 10.0473 8.75002 10.2083C8.75002 10.3693 8.61935 10.5 8.45835 10.5Z" fill="white"/>
</g>
<defs>
<clipPath id="clip0">
<rect width="14" height="14" fill="white"/>
</clipPath>
</defs>
</svg>
