<svg width="20" height="20" viewBox="0 0 20 20" fill="none" xmlns="http://www.w3.org/2000/svg">
<path d="M19.4433 13.2898C19.8034 12.259 19.9999 11.1521 19.9999 9.99995C19.9999 8.84782 19.8034 7.74088 19.4433 6.71012C19.4345 6.67915 19.4241 6.64895 19.4115 6.6199C18.0226 2.76432 14.3283 0 10 0C5.67179 0 1.97743 2.76432 0.588579 6.6199C0.575964 6.64905 0.565452 6.67915 0.556755 6.71012C0.196665 7.74088 0.000183105 8.84782 0.000183105 9.99995C0.000183105 11.1521 0.196665 12.259 0.556755 13.2898C0.565547 13.3207 0.575964 13.3509 0.588579 13.38C1.97752 17.2357 5.67179 19.9999 10 19.9999C14.3283 19.9999 18.0226 17.2356 19.4115 13.38C19.4241 13.3509 19.4345 13.3208 19.4433 13.2898ZM10 18.5665C9.61921 18.5665 9.00521 17.8773 8.49202 16.3376C8.24431 15.5945 8.04602 14.7404 7.90152 13.8112H12.0986C11.9541 14.7404 11.7558 15.5944 11.5082 16.3376C10.9949 17.8773 10.3809 18.5665 10 18.5665ZM7.72759 12.3777C7.65869 11.6134 7.62228 10.816 7.62228 9.99995C7.62228 9.18392 7.65869 8.38652 7.72759 7.62219H12.2724C12.3413 8.38652 12.3777 9.18392 12.3777 9.99995C12.3777 10.816 12.3413 11.6134 12.2724 12.3777H7.72759ZM1.43357 10C1.43357 9.17532 1.55102 8.37754 1.76957 7.62229H6.28981C6.22282 8.40239 6.1888 9.20189 6.1888 10C6.1888 10.7982 6.22273 11.5977 6.28981 12.3778H1.76957C1.55102 11.6225 1.43357 10.8248 1.43357 10ZM10 1.43348C10.3809 1.43348 10.995 2.1227 11.5082 3.66244C11.7558 4.40546 11.9542 5.25963 12.0986 6.18871H7.90143C8.04592 5.25953 8.24422 4.40546 8.49192 3.66244C9.00521 2.1227 9.61921 1.43348 10 1.43348ZM13.7102 7.62229H18.2304C18.449 8.37754 18.5664 9.17532 18.5664 10C18.5664 10.8248 18.449 11.6226 18.2304 12.3778H13.7102C13.7772 11.5977 13.8112 10.7982 13.8112 10C13.8112 9.20189 13.7772 8.40239 13.7102 7.62229ZM17.6703 6.18881H13.5457C13.2907 4.43069 12.8533 2.85339 12.2397 1.73126C14.6188 2.37623 16.5898 4.02292 17.6703 6.18881ZM7.76028 1.73117C7.14665 2.85329 6.70925 4.4306 6.45428 6.18881H2.32968C3.41024 4.02292 5.38118 2.37623 7.76028 1.73117ZM2.32968 13.8112H6.45428C6.70925 15.5693 7.14665 17.1466 7.76028 18.2688C5.38118 17.6238 3.41024 15.9772 2.32968 13.8112ZM12.2397 18.2688C12.8533 17.1467 13.2907 15.5694 13.5457 13.8112H17.6703C16.5898 15.9772 14.6188 17.6238 12.2397 18.2688Z" fill="#777777"/>
</svg>
