<svg width="14" height="14" viewBox="0 0 14 14" fill="none" xmlns="http://www.w3.org/2000/svg">
<path d="M12.1558 5.22656H5.64801C5.53475 5.22656 5.44293 5.31838 5.44293 5.43164C5.44293 5.5449 5.53475 5.63672 5.64801 5.63672H12.1558C12.2691 5.63672 12.3609 5.5449 12.3609 5.43164C12.3609 5.31838 12.2691 5.22656 12.1558 5.22656Z" fill="black"/>
<path d="M12.1558 6.79431H5.64801C5.53475 6.79431 5.44293 6.88613 5.44293 6.99939C5.44293 7.11265 5.53475 7.20447 5.64801 7.20447H12.1558C12.2691 7.20447 12.3609 7.11265 12.3609 6.99939C12.3609 6.88613 12.2691 6.79431 12.1558 6.79431Z" fill="black"/>
<path d="M12.1558 8.36194H5.64801C5.53475 8.36194 5.44293 8.45376 5.44293 8.56702C5.44293 8.68027 5.53475 8.77209 5.64801 8.77209H12.1558C12.2691 8.77209 12.3609 8.68027 12.3609 8.56702C12.3609 8.45376 12.2691 8.36194 12.1558 8.36194Z" fill="black"/>
<path d="M12.8072 3.43298H4.99656C4.33886 3.43298 3.80377 3.96805 3.80377 4.62577V9.53717C3.80377 10.1949 4.33884 10.73 4.99656 10.73H10.4711C10.5296 10.73 10.584 10.7563 10.6203 10.8023L12.3882 13.0404C12.4579 13.1286 12.5596 13.1767 12.666 13.1767C12.7056 13.1767 12.7458 13.1701 12.7853 13.1563C12.931 13.1057 13.0251 12.9734 13.0251 12.8192V10.7096C13.5781 10.6063 14 10.1173 14 9.53717V4.62574C14 3.96805 13.4649 3.43298 12.8072 3.43298ZM13.5898 9.53717C13.5898 9.9631 13.2433 10.3141 12.8174 10.3195C12.7052 10.3209 12.6149 10.4123 12.6149 10.5246V12.6657L10.9422 10.548C10.8277 10.403 10.6559 10.3198 10.4711 10.3198H4.99656C4.56502 10.3198 4.21393 9.96868 4.21393 9.53714V4.62574C4.21393 4.19421 4.565 3.84311 4.99656 3.84311H12.8072C13.2387 3.84311 13.5898 4.19421 13.5898 4.62574V9.53717Z" fill="black"/>
<path d="M3.02132 6.82399C2.88105 6.84389 2.75543 6.91611 2.6676 7.02729L1.25882 8.81082V7.02332C1.25882 6.91108 1.16859 6.81969 1.05637 6.81825C0.700055 6.81371 0.410156 6.52012 0.410156 6.16377V1.88827C0.410156 1.52725 0.703883 1.23352 1.0649 1.23352H7.86428C8.2253 1.23352 8.51903 1.52725 8.51903 1.88827V2.67938C8.51903 2.79264 8.61085 2.88446 8.72411 2.88446C8.83736 2.88446 8.92918 2.79264 8.92918 2.67938V1.88827C8.92918 1.30109 8.45146 0.823364 7.86428 0.823364H1.0649C0.477723 0.823364 0 1.30109 0 1.88827V6.16377C0 6.6742 0.365613 7.10544 0.848695 7.20623V9.02093C0.848695 9.16661 0.937617 9.29166 1.07527 9.33945C1.11259 9.35241 1.1506 9.3587 1.188 9.3587C1.28855 9.3587 1.38466 9.31326 1.45048 9.22994L2.98949 7.28153C3.0117 7.2534 3.0435 7.23513 3.07899 7.23007C3.19112 7.21416 3.26914 7.11033 3.2532 6.9982C3.23728 6.88606 3.13362 6.80799 3.02132 6.82399Z" fill="black"/>
</svg>
