<svg width="14" height="14" viewBox="0 0 14 14" fill="none" xmlns="http://www.w3.org/2000/svg">
<g clip-path="url(#clip0)">
<path d="M7.00001 2.43481C5.82524 2.43481 4.86957 3.39046 4.86957 4.56526C4.86957 5.74006 5.82521 6.6957 7.00001 6.6957C8.17481 6.6957 9.13045 5.74003 9.13045 4.56526C9.13045 3.39049 8.17481 2.43481 7.00001 2.43481ZM7.00001 6.08699C6.16124 6.08699 5.47828 5.40403 5.47828 4.56526C5.47828 3.72648 6.16124 3.04353 7.00001 3.04353C7.83878 3.04353 8.52174 3.72648 8.52174 4.56526C8.52174 5.40403 7.83881 6.08699 7.00001 6.08699Z" fill="black"/>
<path d="M11.2609 4.86963C10.4221 4.86963 9.73914 5.55258 9.73914 6.39136C9.73914 7.23013 10.4221 7.91309 11.2609 7.91309C12.0996 7.91309 12.7826 7.23013 12.7826 6.39136C12.7826 5.55258 12.0996 4.86963 11.2609 4.86963ZM11.2609 7.3044C10.7575 7.3044 10.3478 6.89476 10.3478 6.39136C10.3478 5.88796 10.7575 5.47831 11.2609 5.47831C11.7643 5.47831 12.1739 5.88796 12.1739 6.39136C12.1739 6.89476 11.7642 7.3044 11.2609 7.3044Z" fill="black"/>
<path d="M2.78235 4.86963C1.94295 4.86963 1.26062 5.55258 1.26062 6.39136C1.26062 7.23013 1.94357 7.91309 2.78235 7.91309C3.62112 7.91309 4.30407 7.23013 4.30407 6.39136C4.30407 5.55258 3.62172 4.86963 2.78235 4.86963ZM2.78235 7.3044C2.27895 7.3044 1.8693 6.89476 1.8693 6.39136C1.8693 5.88796 2.27895 5.47831 2.78235 5.47831C3.28575 5.47831 3.69539 5.88796 3.69539 6.39136C3.69539 6.89476 3.28572 7.3044 2.78235 7.3044Z" fill="black"/>
<path d="M6.99998 7.30432C4.81841 7.30432 3.04346 9.07927 3.04346 11.2608C3.04346 11.4288 3.17981 11.5652 3.34781 11.5652C3.51581 11.5652 3.65217 11.4288 3.65217 11.2608C3.65217 9.41467 5.15381 7.91303 6.99998 7.91303C8.84615 7.91303 10.3478 9.41467 10.3478 11.2608C10.3478 11.4288 10.4841 11.5652 10.6521 11.5652C10.8201 11.5652 10.9565 11.4288 10.9565 11.2608C10.9565 9.07927 9.18155 7.30432 6.99998 7.30432Z" fill="black"/>
<path d="M11.2609 8.52173C10.7599 8.52173 10.2693 8.65869 9.84199 8.91739C9.69896 9.00504 9.65268 9.1919 9.73973 9.33556C9.82799 9.47923 10.0142 9.52488 10.1579 9.43782C10.4896 9.23633 10.8707 9.13041 11.2609 9.13041C12.4356 9.13041 13.3913 10.0861 13.3913 11.2609C13.3913 11.4289 13.5277 11.5652 13.6957 11.5652C13.8637 11.5652 14 11.4289 14 11.2609C14 9.75068 12.771 8.52173 11.2609 8.52173Z" fill="black"/>
<path d="M4.1574 8.91676C3.73069 8.65868 3.2401 8.52173 2.73913 8.52173C1.22896 8.52173 0 9.75068 0 11.2609C0 11.4289 0.136357 11.5652 0.304357 11.5652C0.472357 11.5652 0.608714 11.4289 0.608714 11.2609C0.608686 10.0861 1.56436 9.13041 2.73913 9.13041C3.12931 9.13041 3.51034 9.23633 3.84149 9.4372C3.98452 9.52425 4.17201 9.4786 4.25966 9.33494C4.34731 9.19127 4.30103 9.00441 4.1574 8.91676Z" fill="black"/>
</g>
<defs>
<clipPath id="clip0">
<rect width="14" height="14" fill="white"/>
</clipPath>
</defs>
</svg>
